<?xml version="1.0" encoding="iso-8859-1"?>
<!-- Generator: Adobe Illustrator 19.0.0, SVG Export Plug-In . SVG Version: 6.00 Build 0)  -->
<svg version="1.1" id="Capa_1" xmlns="http://www.w3.org/2000/svg" xmlns:xlink="http://www.w3.org/1999/xlink" x="0px" y="0px"
	 viewBox="0 0 512 512" style="enable-background:new 0 0 512 512;" xml:space="preserve">
<g>
	<g>
		<path d="M508.885,216.448L295.552,3.115C293.546,1.131,290.837,0,288,0H10.666C6.357,0,2.453,2.603,0.81,6.592
			c-1.643,3.989-0.747,8.555,2.325,11.627l490.667,490.667c2.027,2.027,4.757,3.115,7.531,3.115c1.365,0,2.752-0.256,4.075-0.811
			c3.989-1.643,6.592-5.547,6.592-9.856V224C512,221.163,510.869,218.453,508.885,216.448z M224,170.667
			c-1.728,0-3.456-0.427-5.035-1.259c-4.139-2.219-6.357-6.891-5.419-11.499l14.421-72.107l-39.083,39.083
			c-4.16,4.16-10.923,4.16-15.083,0c-4.16-4.16-4.16-10.923,0-15.083l64-64c3.328-3.328,8.448-4.075,12.565-1.856
			c4.139,2.219,6.357,6.891,5.419,11.499l-14.421,72.107l39.104-39.083c4.16-4.16,10.923-4.16,15.083,0
			c4.16,4.16,4.16,10.923,0,15.083l-64,64C229.482,169.6,226.752,170.667,224,170.667z M316.885,188.864
			c-2.091,2.091-4.821,3.136-7.552,3.136c-2.731,0-5.461-1.045-7.552-3.115L288,175.083L271.082,192l24.448,24.448
			c4.16,4.16,4.16,10.923,0,15.083c-2.069,2.091-4.8,3.136-7.531,3.136s-5.461-1.045-7.552-3.115l-32-32
			c-4.16-4.16-4.16-10.923,0-15.083l64-64c4.16-4.16,10.923-4.16,15.083,0l32,32c4.16,4.16,4.16,10.923,0,15.083
			s-10.923,4.16-15.083,0L320,143.083L303.082,160l13.803,13.781C321.045,177.941,321.045,184.704,316.885,188.864z
			 M463.445,276.203l-85.333,42.667c-1.515,0.747-3.157,1.131-4.779,1.131c-2.517,0-5.013-0.896-6.997-2.603
			c-3.264-2.837-4.48-7.339-3.115-11.435l14.592-43.755L334.058,276.8c-4.075,1.365-8.619,0.128-11.435-3.115
			c-2.816-3.243-3.413-7.915-1.472-11.755l42.667-85.333c2.645-5.269,9.045-7.381,14.315-4.779
			c5.269,2.645,7.403,9.045,4.779,14.315l-31.147,62.293l39.573-13.184c3.819-1.323,8.064-0.299,10.923,2.581
			c2.859,2.859,3.861,7.083,2.581,10.923l-13.184,39.573l62.293-31.147c5.291-2.624,11.669-0.491,14.315,4.779
			C470.848,267.157,468.714,273.579,463.445,276.203z"/>
	</g>
</g>
<g>
</g>
<g>
</g>
<g>
</g>
<g>
</g>
<g>
</g>
<g>
</g>
<g>
</g>
<g>
</g>
<g>
</g>
<g>
</g>
<g>
</g>
<g>
</g>
<g>
</g>
<g>
</g>
<g>
</g>
</svg>
